<?xml version="1.0" encoding="UTF-8" standalone="no"?>
<!DOCTYPE svg PUBLIC "-//W3C//DTD SVG 1.1//EN"
 "http://www.w3.org/Graphics/SVG/1.1/DTD/svg11.dtd">
<!-- Generated by graphviz version 2.43.0 (0)
 -->
<!-- Title: self_healing_controller Pages: 1 -->
<svg width="2245pt" height="216pt"
 viewBox="0.00 0.00 2244.85 216.08" xmlns="http://www.w3.org/2000/svg" xmlns:xlink="http://www.w3.org/1999/xlink">
<g id="graph0" class="graph" transform="scale(1 1) rotate(0) translate(4 212.08)">
<title>self_healing_controller</title>
<polygon fill="white" stroke="transparent" points="-4,4 -4,-212.08 2240.85,-212.08 2240.85,4 -4,4"/>
<text text-anchor="middle" x="1118.42" y="-188.08" font-family="Times,serif" font-size="20.00">Self&#45;Healing Controller (Detailed)</text>
<!-- X0 -->
<g id="node1" class="node">
<title>X0</title>
<ellipse fill="none" stroke="black" cx="89.04" cy="-89.04" rx="89.08" ry="89.08"/>
<text text-anchor="middle" x="89.04" y="-85.34" font-family="Times,serif" font-size="14.00">Start (on failure)</text>
</g>
<!-- X1 -->
<g id="node2" class="node">
<title>X1</title>
<polygon fill="none" stroke="black" points="343.08,-108.04 215.08,-108.04 215.08,-70.04 343.08,-70.04 343.08,-108.04"/>
<text text-anchor="middle" x="279.08" y="-92.84" font-family="Times,serif" font-size="14.00">FAIL_CLASSIFY</text>
<text text-anchor="middle" x="279.08" y="-77.84" font-family="Times,serif" font-size="14.00">(reason_code)</text>
</g>
<!-- X0&#45;&gt;X1 -->
<g id="edge1" class="edge">
<title>X0&#45;&gt;X1</title>
<path fill="none" stroke="black" d="M178.28,-89.04C187.2,-89.04 196.18,-89.04 204.92,-89.04"/>
<polygon fill="black" stroke="black" points="205.03,-92.54 215.03,-89.04 205.03,-85.54 205.03,-92.54"/>
</g>
<!-- X2 -->
<g id="node3" class="node">
<title>X2</title>
<polygon fill="none" stroke="black" points="493.08,-143.04 380.08,-143.04 380.08,-105.04 493.08,-105.04 493.08,-143.04"/>
<text text-anchor="middle" x="436.58" y="-127.84" font-family="Times,serif" font-size="14.00">FIX_PLAN</text>
<text text-anchor="middle" x="436.58" y="-112.84" font-family="Times,serif" font-size="14.00">(select fixers)</text>
</g>
<!-- X1&#45;&gt;X2 -->
<g id="edge2" class="edge">
<title>X1&#45;&gt;X2</title>
<path fill="none" stroke="black" d="M343.33,-103.28C352.13,-105.26 361.18,-107.3 370.02,-109.29"/>
<polygon fill="black" stroke="black" points="369.36,-112.72 379.88,-111.51 370.9,-105.89 369.36,-112.72"/>
</g>
<!-- X3 -->
<g id="node4" class="node">
<title>X3</title>
<polygon fill="none" stroke="black" points="709.08,-143.04 530.08,-143.04 530.08,-105.04 709.08,-105.04 709.08,-143.04"/>
<text text-anchor="middle" x="619.58" y="-127.84" font-family="Times,serif" font-size="14.00">FIX_APPLY</text>
<text text-anchor="middle" x="619.58" y="-112.84" font-family="Times,serif" font-size="14.00">(idempotent, bounded)</text>
</g>
<!-- X2&#45;&gt;X3 -->
<g id="edge3" class="edge">
<title>X2&#45;&gt;X3</title>
<path fill="none" stroke="black" d="M493.37,-124.04C501.82,-124.04 510.75,-124.04 519.79,-124.04"/>
<polygon fill="black" stroke="black" points="520.02,-127.54 530.02,-124.04 520.02,-120.54 520.02,-127.54"/>
</g>
<!-- X4 -->
<g id="node5" class="node">
<title>X4</title>
<polygon fill="none" stroke="black" points="1057.08,-142.04 854.08,-142.04 854.08,-106.04 1057.08,-106.04 1057.08,-142.04"/>
<text text-anchor="middle" x="955.58" y="-120.34" font-family="Times,serif" font-size="14.00">REVALIDATE → DRY_RUN</text>
</g>
<!-- X3&#45;&gt;X4 -->
<g id="edge4" class="edge">
<title>X3&#45;&gt;X4</title>
<path fill="none" stroke="black" d="M709.21,-124.04C750.54,-124.04 800.15,-124.04 843.91,-124.04"/>
<polygon fill="black" stroke="black" points="844.03,-127.54 854.03,-124.04 844.03,-120.54 844.03,-127.54"/>
</g>
<!-- X5 -->
<g id="node6" class="node">
<title>X5</title>
<polygon fill="none" stroke="black" points="1151.07,-142.04 1094.1,-124.04 1151.07,-106.04 1208.05,-124.04 1151.07,-142.04"/>
<text text-anchor="middle" x="1151.07" y="-120.34" font-family="Times,serif" font-size="14.00">clean?</text>
</g>
<!-- X4&#45;&gt;X5 -->
<g id="edge5" class="edge">
<title>X4&#45;&gt;X5</title>
<path fill="none" stroke="black" d="M1057.3,-124.04C1066.24,-124.04 1075.14,-124.04 1083.68,-124.04"/>
<polygon fill="black" stroke="black" points="1083.91,-127.54 1093.91,-124.04 1083.91,-120.54 1083.91,-127.54"/>
</g>
<!-- X6 -->
<g id="node7" class="node">
<title>X6</title>
<polygon fill="none" stroke="black" points="1439.56,-103.04 1309.56,-103.04 1309.56,-65.04 1439.56,-65.04 1439.56,-103.04"/>
<text text-anchor="middle" x="1374.56" y="-87.84" font-family="Times,serif" font-size="14.00">Backoff + Retry</text>
<text text-anchor="middle" x="1374.56" y="-72.84" font-family="Times,serif" font-size="14.00">(attempt++)</text>
</g>
<!-- X5&#45;&gt;X6 -->
<g id="edge7" class="edge">
<title>X5&#45;&gt;X6</title>
<path fill="none" stroke="black" d="M1188.15,-117.53C1218.19,-112.1 1261.96,-104.2 1299.43,-97.43"/>
<polygon fill="black" stroke="black" points="1300.09,-100.87 1309.31,-95.65 1298.85,-93.98 1300.09,-100.87"/>
<text text-anchor="middle" x="1238.56" y="-112.84" font-family="Times,serif" font-size="14.00">no</text>
</g>
<!-- X7 -->
<g id="node8" class="node">
<title>X7</title>
<polygon fill="none" stroke="black" points="1480.06,-167.04 1269.06,-167.04 1269.06,-129.04 1480.06,-129.04 1480.06,-167.04"/>
<text text-anchor="middle" x="1374.56" y="-151.84" font-family="Times,serif" font-size="14.00">RESUME_POINT</text>
<text text-anchor="middle" x="1374.56" y="-136.84" font-family="Times,serif" font-size="14.00">(fail&#45;fast→D, post&#45;apply→H)</text>
</g>
<!-- X5&#45;&gt;X7 -->
<g id="edge6" class="edge">
<title>X5&#45;&gt;X7</title>
<path fill="none" stroke="black" d="M1193.99,-128.58C1212.65,-130.61 1235.62,-133.1 1258.83,-135.61"/>
<polygon fill="black" stroke="black" points="1258.45,-139.09 1268.77,-136.69 1259.21,-132.13 1258.45,-139.09"/>
<text text-anchor="middle" x="1238.56" y="-137.84" font-family="Times,serif" font-size="14.00">yes</text>
</g>
<!-- X6&#45;&gt;X1 -->
<g id="edge8" class="edge">
<title>X6&#45;&gt;X1</title>
<path fill="none" stroke="black" d="M1309.13,-80.93C1264.94,-79.06 1204.97,-77.04 1152.07,-77.04 435.58,-77.04 435.58,-77.04 435.58,-77.04 408.69,-77.04 379.26,-78.85 353.31,-81.06"/>
<polygon fill="black" stroke="black" points="352.83,-77.59 343.17,-81.96 353.44,-84.56 352.83,-77.59"/>
<text text-anchor="middle" x="781.58" y="-80.84" font-family="Times,serif" font-size="14.00">attempt &lt; max</text>
</g>
<!-- X8 -->
<g id="node9" class="node">
<title>X8</title>
<polygon fill="none" stroke="black" points="2236.74,-102.04 1750.3,-102.04 1625.17,-66.04 2111.6,-66.04 2236.74,-102.04"/>
<text text-anchor="middle" x="1930.95" y="-80.34" font-family="Times,serif" font-size="14.00">QUARANTINE + OPEN_TICKET + NOTIFY</text>
</g>
<!-- X6&#45;&gt;X8 -->
<g id="edge9" class="edge">
<title>X6&#45;&gt;X8</title>
<path fill="none" stroke="black" d="M1439.7,-84.04C1498.57,-84.04 1589.72,-84.04 1677.53,-84.04"/>
<polygon fill="black" stroke="black" points="1677.67,-87.54 1687.67,-84.04 1677.67,-80.54 1677.67,-87.54"/>
<text text-anchor="middle" x="1552.56" y="-87.84" font-family="Times,serif" font-size="14.00">attempt = max</text>
</g>
</g>
</svg>
